<svg width="86" height="21" viewBox="0 0 86 21" fill="none" xmlns="http://www.w3.org/2000/svg">
<path d="M5.18352 15.14C4.25018 15.14 3.41018 14.98 2.66352 14.66C1.91685 14.3267 1.33018 13.86 0.903516 13.26C0.476849 12.66 0.263516 11.96 0.263516 11.16H2.70352C2.75685 11.76 2.99018 12.2533 3.40352 12.64C3.83018 13.0267 4.42352 13.22 5.18352 13.22C5.97018 13.22 6.58352 13.0333 7.02352 12.66C7.46352 12.2733 7.68352 11.78 7.68352 11.18C7.68352 10.7133 7.54352 10.3333 7.26352 10.04C6.99685 9.74667 6.65685 9.52 6.24352 9.36C5.84352 9.2 5.28352 9.02667 4.56352 8.84C3.65685 8.6 2.91685 8.36 2.34352 8.12C1.78352 7.86667 1.30352 7.48 0.903516 6.96C0.503516 6.44 0.303516 5.74667 0.303516 4.88C0.303516 4.08 0.503516 3.38 0.903516 2.78C1.30352 2.18 1.86352 1.72 2.58352 1.4C3.30352 1.08 4.13685 0.919999 5.08352 0.919999C6.43018 0.919999 7.53018 1.26 8.38352 1.94C9.25018 2.60667 9.73018 3.52667 9.82352 4.7H7.30352C7.26352 4.19333 7.02352 3.76 6.58352 3.4C6.14352 3.04 5.56352 2.86 4.84352 2.86C4.19018 2.86 3.65685 3.02667 3.24352 3.36C2.83018 3.69333 2.62352 4.17333 2.62352 4.8C2.62352 5.22667 2.75018 5.58 3.00352 5.86C3.27018 6.12667 3.60352 6.34 4.00352 6.5C4.40352 6.66 4.95018 6.83333 5.64352 7.02C6.56352 7.27333 7.31018 7.52667 7.88352 7.78C8.47018 8.03333 8.96352 8.42667 9.36352 8.96C9.77685 9.48 9.98352 10.18 9.98352 11.06C9.98352 11.7667 9.79018 12.4333 9.40352 13.06C9.03018 13.6867 8.47685 14.1933 7.74352 14.58C7.02352 14.9533 6.17018 15.14 5.18352 15.14ZM14.9538 5.6C15.3405 5.09333 15.8672 4.66667 16.5338 4.32C17.2005 3.97333 17.9538 3.8 18.7938 3.8C19.7538 3.8 20.6272 4.04 21.4138 4.52C22.2138 4.98667 22.8405 5.64667 23.2938 6.5C23.7472 7.35333 23.9738 8.33333 23.9738 9.44C23.9738 10.5467 23.7472 11.54 23.2938 12.42C22.8405 13.2867 22.2138 13.9667 21.4138 14.46C20.6272 14.94 19.7538 15.18 18.7938 15.18C17.9538 15.18 17.2072 15.0133 16.5538 14.68C15.9005 14.3333 15.3672 13.9067 14.9538 13.4V20.24H12.6738V3.98H14.9538V5.6ZM21.6538 9.44C21.6538 8.68 21.4938 8.02667 21.1738 7.48C20.8672 6.92 20.4538 6.5 19.9338 6.22C19.4272 5.92667 18.8805 5.78 18.2938 5.78C17.7205 5.78 17.1738 5.92667 16.6538 6.22C16.1472 6.51333 15.7338 6.94 15.4138 7.5C15.1072 8.06 14.9538 8.72 14.9538 9.48C14.9538 10.24 15.1072 10.9067 15.4138 11.48C15.7338 12.04 16.1472 12.4667 16.6538 12.76C17.1738 13.0533 17.7205 13.2 18.2938 13.2C18.8805 13.2 19.4272 13.0533 19.9338 12.76C20.4538 12.4533 20.8672 12.0133 21.1738 11.44C21.4938 10.8667 21.6538 10.2 21.6538 9.44ZM25.4685 9.44C25.4685 8.33333 25.6952 7.35333 26.1485 6.5C26.6152 5.64667 27.2418 4.98667 28.0285 4.52C28.8285 4.04 29.7085 3.8 30.6685 3.8C31.5352 3.8 32.2885 3.97333 32.9285 4.32C33.5818 4.65333 34.1018 5.07333 34.4885 5.58V3.98H36.7885V15H34.4885V13.36C34.1018 13.88 33.5752 14.3133 32.9085 14.66C32.2418 15.0067 31.4818 15.18 30.6285 15.18C29.6818 15.18 28.8152 14.94 28.0285 14.46C27.2418 13.9667 26.6152 13.2867 26.1485 12.42C25.6952 11.54 25.4685 10.5467 25.4685 9.44ZM34.4885 9.48C34.4885 8.72 34.3285 8.06 34.0085 7.5C33.7018 6.94 33.2952 6.51333 32.7885 6.22C32.2818 5.92667 31.7352 5.78 31.1485 5.78C30.5618 5.78 30.0152 5.92667 29.5085 6.22C29.0018 6.5 28.5885 6.92 28.2685 7.48C27.9618 8.02667 27.8085 8.68 27.8085 9.44C27.8085 10.2 27.9618 10.8667 28.2685 11.44C28.5885 12.0133 29.0018 12.4533 29.5085 12.76C30.0285 13.0533 30.5752 13.2 31.1485 13.2C31.7352 13.2 32.2818 13.0533 32.7885 12.76C33.2952 12.4667 33.7018 12.04 34.0085 11.48C34.3285 10.9067 34.4885 10.24 34.4885 9.48ZM39.0232 9.48C39.0232 8.34667 39.2499 7.35333 39.7032 6.5C40.1699 5.63333 40.8099 4.96667 41.6232 4.5C42.4365 4.03333 43.3699 3.8 44.4232 3.8C45.7565 3.8 46.8565 4.12 47.7232 4.76C48.6032 5.38667 49.1965 6.28667 49.5032 7.46H47.0432C46.8432 6.91333 46.5232 6.48667 46.0832 6.18C45.6432 5.87333 45.0899 5.72 44.4232 5.72C43.4899 5.72 42.7432 6.05333 42.1832 6.72C41.6365 7.37333 41.3632 8.29333 41.3632 9.48C41.3632 10.6667 41.6365 11.5933 42.1832 12.26C42.7432 12.9267 43.4899 13.26 44.4232 13.26C45.7432 13.26 46.6165 12.68 47.0432 11.52H49.5032C49.1832 12.64 48.5832 13.5333 47.7032 14.2C46.8232 14.8533 45.7299 15.18 44.4232 15.18C43.3699 15.18 42.4365 14.9467 41.6232 14.48C40.8099 14 40.1699 13.3333 39.7032 12.48C39.2499 11.6133 39.0232 10.6133 39.0232 9.48ZM61.8754 9.22C61.8754 9.63333 61.8487 10.0067 61.7954 10.34H53.3754C53.4421 11.22 53.7687 11.9267 54.3554 12.46C54.9421 12.9933 55.6621 13.26 56.5154 13.26C57.7421 13.26 58.6087 12.7467 59.1154 11.72H61.5754C61.2421 12.7333 60.6354 13.5667 59.7554 14.22C58.8887 14.86 57.8087 15.18 56.5154 15.18C55.4621 15.18 54.5154 14.9467 53.6754 14.48C52.8487 14 52.1954 13.3333 51.7154 12.48C51.2487 11.6133 51.0154 10.6133 51.0154 9.48C51.0154 8.34667 51.2421 7.35333 51.6954 6.5C52.1621 5.63333 52.8087 4.96667 53.6354 4.5C54.4754 4.03333 55.4354 3.8 56.5154 3.8C57.5554 3.8 58.4821 4.02667 59.2954 4.48C60.1087 4.93333 60.7421 5.57333 61.1954 6.4C61.6487 7.21333 61.8754 8.15333 61.8754 9.22ZM59.4954 8.5C59.4821 7.66 59.1821 6.98667 58.5954 6.48C58.0087 5.97333 57.2821 5.72 56.4154 5.72C55.6287 5.72 54.9554 5.97333 54.3954 6.48C53.8354 6.97333 53.5021 7.64667 53.3954 8.5H59.4954ZM71.5745 1.1V9.96C71.5745 11.0133 71.8478 11.8067 72.3945 12.34C72.9545 12.8733 73.7278 13.14 74.7145 13.14C75.7145 13.14 76.4878 12.8733 77.0345 12.34C77.5945 11.8067 77.8745 11.0133 77.8745 9.96V1.1H80.1545V9.92C80.1545 11.0533 79.9078 12.0133 79.4145 12.8C78.9211 13.5867 78.2611 14.1733 77.4345 14.56C76.6078 14.9467 75.6945 15.14 74.6945 15.14C73.6945 15.14 72.7811 14.9467 71.9545 14.56C71.1411 14.1733 70.4945 13.5867 70.0145 12.8C69.5345 12.0133 69.2945 11.0533 69.2945 9.92V1.1H71.5745ZM85.403 1.1V15H83.123V1.1H85.403Z" fill="#135645"/>
</svg>
