<svg width="156" height="36" viewBox="0 0 156 36" fill="none" xmlns="http://www.w3.org/2000/svg">
<path d="M9.24276 26.2545C7.54579 26.2545 6.01851 25.9636 4.66094 25.3818C3.30336 24.7758 2.23669 23.9273 1.46094 22.8364C0.685179 21.7455 0.2973 20.4727 0.2973 19.0182H4.73366C4.83063 20.1091 5.25488 21.0061 6.00639 21.7091C6.78215 22.4121 7.86094 22.7636 9.24276 22.7636C10.6731 22.7636 11.7882 22.4242 12.5882 21.7455C13.3882 21.0424 13.7882 20.1455 13.7882 19.0545C13.7882 18.2061 13.5337 17.5152 13.0246 16.9818C12.5397 16.4485 11.9215 16.0364 11.17 15.7455C10.4428 15.4545 9.42457 15.1394 8.11548 14.8C6.467 14.3636 5.12154 13.9273 4.07912 13.4909C3.06094 13.0303 2.18821 12.3273 1.46094 11.3818C0.733664 10.4364 0.370028 9.17576 0.370028 7.6C0.370028 6.14545 0.733664 4.87273 1.46094 3.78182C2.18821 2.69091 3.20639 1.85455 4.51548 1.27273C5.82457 0.690908 7.33973 0.399998 9.06094 0.399998C11.5094 0.399998 13.5094 1.01818 15.0609 2.25454C16.6367 3.46667 17.5094 5.13939 17.6791 7.27273H13.0973C13.0246 6.35151 12.5882 5.56364 11.7882 4.90909C10.9882 4.25454 9.93366 3.92727 8.62457 3.92727C7.43669 3.92727 6.467 4.2303 5.71548 4.83636C4.96397 5.44242 4.58821 6.31515 4.58821 7.45454C4.58821 8.2303 4.81851 8.87273 5.27912 9.38182C5.76397 9.86667 6.37003 10.2545 7.0973 10.5455C7.82457 10.8364 8.81851 11.1515 10.0791 11.4909C11.7518 11.9515 13.1094 12.4121 14.1518 12.8727C15.2185 13.3333 16.1155 14.0485 16.8428 15.0182C17.5943 15.9636 17.97 17.2364 17.97 18.8364C17.97 20.1212 17.6185 21.3333 16.9155 22.4727C16.2367 23.6121 15.2306 24.5333 13.8973 25.2364C12.5882 25.9152 11.0367 26.2545 9.24276 26.2545ZM27.007 8.90909C27.71 7.98788 28.6676 7.21212 29.8797 6.58182C31.0918 5.95151 32.4615 5.63636 33.9888 5.63636C35.7342 5.63636 37.3221 6.07273 38.7524 6.94545C40.207 7.79394 41.3464 8.99394 42.1706 10.5455C42.9948 12.097 43.407 13.8788 43.407 15.8909C43.407 17.903 42.9948 19.7091 42.1706 21.3091C41.3464 22.8848 40.207 24.1212 38.7524 25.0182C37.3221 25.8909 35.7342 26.3273 33.9888 26.3273C32.4615 26.3273 31.1039 26.0242 29.9161 25.4182C28.7282 24.7879 27.7585 24.0121 27.007 23.0909V35.5273H22.8615V5.96364H27.007V8.90909ZM39.1888 15.8909C39.1888 14.5091 38.8979 13.3212 38.316 12.3273C37.7585 11.3091 37.007 10.5455 36.0615 10.0364C35.1403 9.50303 34.1464 9.23636 33.0797 9.23636C32.0373 9.23636 31.0433 9.50303 30.0979 10.0364C29.1767 10.5697 28.4251 11.3455 27.8433 12.3636C27.2857 13.3818 27.007 14.5818 27.007 15.9636C27.007 17.3455 27.2857 18.5576 27.8433 19.6C28.4251 20.6182 29.1767 21.3939 30.0979 21.9273C31.0433 22.4606 32.0373 22.7273 33.0797 22.7273C34.1464 22.7273 35.1403 22.4606 36.0615 21.9273C37.007 21.3697 37.7585 20.5697 38.316 19.5273C38.8979 18.4848 39.1888 17.2727 39.1888 15.8909ZM46.1246 15.8909C46.1246 13.8788 46.5367 12.097 47.3609 10.5455C48.2094 8.99394 49.3488 7.79394 50.7791 6.94545C52.2337 6.07273 53.8337 5.63636 55.5791 5.63636C57.1549 5.63636 58.5246 5.95151 59.6882 6.58182C60.8761 7.18788 61.8215 7.95152 62.5246 8.87273V5.96364H66.7064V26H62.5246V23.0182C61.8215 23.9636 60.864 24.7515 59.6518 25.3818C58.4397 26.0121 57.0579 26.3273 55.5064 26.3273C53.7852 26.3273 52.2094 25.8909 50.7791 25.0182C49.3488 24.1212 48.2094 22.8848 47.3609 21.3091C46.5367 19.7091 46.1246 17.903 46.1246 15.8909ZM62.5246 15.9636C62.5246 14.5818 62.2337 13.3818 61.6518 12.3636C61.0943 11.3455 60.3549 10.5697 59.4337 10.0364C58.5125 9.50303 57.5185 9.23636 56.4518 9.23636C55.3852 9.23636 54.3912 9.50303 53.47 10.0364C52.5488 10.5455 51.7973 11.3091 51.2155 12.3273C50.6579 13.3212 50.3791 14.5091 50.3791 15.8909C50.3791 17.2727 50.6579 18.4848 51.2155 19.5273C51.7973 20.5697 52.5488 21.3697 53.47 21.9273C54.4155 22.4606 55.4094 22.7273 56.4518 22.7273C57.5185 22.7273 58.5125 22.4606 59.4337 21.9273C60.3549 21.3939 61.0943 20.6182 61.6518 19.6C62.2337 18.5576 62.5246 17.3455 62.5246 15.9636ZM70.7695 15.9636C70.7695 13.903 71.1816 12.097 72.0058 10.5455C72.8543 8.9697 74.0179 7.75758 75.4967 6.90909C76.9755 6.06061 78.6725 5.63636 80.5876 5.63636C83.0119 5.63636 85.0119 6.21818 86.5876 7.38182C88.1876 8.52121 89.2664 10.1576 89.824 12.2909H85.3513C84.9876 11.297 84.4058 10.5212 83.6058 9.96364C82.8058 9.40606 81.7998 9.12727 80.5876 9.12727C78.8907 9.12727 77.5331 9.73333 76.5149 10.9455C75.521 12.1333 75.024 13.8061 75.024 15.9636C75.024 18.1212 75.521 19.8061 76.5149 21.0182C77.5331 22.2303 78.8907 22.8364 80.5876 22.8364C82.9876 22.8364 84.5755 21.7818 85.3513 19.6727H89.824C89.2422 21.7091 88.1513 23.3333 86.5513 24.5455C84.9513 25.7333 82.9634 26.3273 80.5876 26.3273C78.6725 26.3273 76.9755 25.903 75.4967 25.0545C74.0179 24.1818 72.8543 22.9697 72.0058 21.4182C71.1816 19.8424 70.7695 18.0242 70.7695 15.9636ZM112.319 15.4909C112.319 16.2424 112.27 16.9212 112.173 17.5273H96.8643C96.9856 19.1273 97.5795 20.4121 98.6462 21.3818C99.7128 22.3515 101.022 22.8364 102.573 22.8364C104.804 22.8364 106.379 21.903 107.301 20.0364H111.773C111.167 21.8788 110.064 23.3939 108.464 24.5818C106.889 25.7455 104.925 26.3273 102.573 26.3273C100.658 26.3273 98.9371 25.903 97.4098 25.0545C95.9068 24.1818 94.7189 22.9697 93.8462 21.4182C92.9977 19.8424 92.5734 18.0242 92.5734 15.9636C92.5734 13.903 92.9856 12.097 93.8098 10.5455C94.6583 8.9697 95.834 7.75758 97.3371 6.90909C98.8643 6.06061 100.61 5.63636 102.573 5.63636C104.464 5.63636 106.149 6.04848 107.628 6.87273C109.107 7.69697 110.258 8.86061 111.083 10.3636C111.907 11.8424 112.319 13.5515 112.319 15.4909ZM107.992 14.1818C107.967 12.6545 107.422 11.4303 106.355 10.5091C105.289 9.58788 103.967 9.12727 102.392 9.12727C100.961 9.12727 99.7371 9.58788 98.7189 10.5091C97.7007 11.4061 97.0946 12.6303 96.9007 14.1818H107.992ZM129.954 0.727271V16.8364C129.954 18.7515 130.451 20.1939 131.444 21.1636C132.463 22.1333 133.869 22.6182 135.663 22.6182C137.481 22.6182 138.887 22.1333 139.881 21.1636C140.899 20.1939 141.408 18.7515 141.408 16.8364V0.727271H145.554V16.7636C145.554 18.8242 145.105 20.5697 144.208 22C143.311 23.4303 142.111 24.497 140.608 25.2C139.105 25.903 137.444 26.2545 135.626 26.2545C133.808 26.2545 132.147 25.903 130.644 25.2C129.166 24.497 127.99 23.4303 127.117 22C126.244 20.5697 125.808 18.8242 125.808 16.7636V0.727271H129.954ZM155.096 0.727271V26H150.951V0.727271H155.096Z" fill="white"/>
</svg>
